<svg width="260" height="148" viewBox="0 0 260 148" xmlns="http://www.w3.org/2000/svg" xmlns:xlink="http://www.w3.org/1999/xlink"><title>Group 12</title><defs><path d="M24.546 10.631s2.365-5.416 1.063-7.635C24.105.432 20.257 1.6 21.335 5.156c-2.577-2.678-5.472.11-3.971 2.672 1.3 2.222 7.182 2.803 7.182 2.803z" id="a"/><mask id="b" x="-3" y="-3" width="15.048" height="15.016"><path fill="#fff" d="M13.952-1.385H29v15.016H13.952z"/><use xlink:href="#a"/></mask></defs><g fill="none" fill-rule="evenodd"><g fill="#FCE2E1"><path d="M192.086 37.347c0-19.05-18.526-20.184-25.053-10.136-4.967-22.709-37.593-22.812-42.582 0-6.56-10.081-25.053-8.86-25.053 10.136M104.889 132.364l-5.453-87.237h92.69l-5.453 87.237z"/></g><g stroke="#F2706D" stroke-width="5" stroke-linecap="round" stroke-linejoin="round"><path d="M192.546 124.632L235 95.996c-2.793-4.136-1.701-9.751 2.439-12.546l-15.16-22.476a9.03 9.03 0 0 1-12.547-2.439l-42.452 28.637c2.79 4.136 1.697 9.757-2.44 12.55l15.161 22.472a9.032 9.032 0 0 1 12.544 2.438z"/><path d="M194.985 112.085c-2.748 1.854-6.512 1.122-8.363-1.625L178.2 97.972c-1.854-2.745-1.122-6.51 1.626-8.363L207.29 71.08c2.751-1.852 6.512-1.121 8.366 1.626l8.423 12.489c1.853 2.747 1.122 6.508-1.626 8.365l-27.47 18.525z"/><path d="M207.87 82.812l-5.69 3.839-12.708 8.573M208.66 91.96l-9.987 6.736"/></g><path d="M242.801 122.203h-11.693.528c.824 0 1.494.672 1.494 1.5v.824c0 .834-.669 1.5-1.494 1.5h-.528 11.693-.527a1.498 1.498 0 0 1-1.495-1.5v-.824c0-.834.67-1.5 1.495-1.5h.527zm-25.715-10.199h12.966-.528c-.825 0-1.493.666-1.493 1.5v.824c0 .829.679 1.5 1.493 1.5h.528-12.966.528c.825 0 1.493-.666 1.493-1.5v-.823c0-.829-.679-1.5-1.493-1.5h-.528zm32.617-3.873a2.505 2.505 0 0 0-2.51-2.501h-33.226a2.5 2.5 0 0 0-2.509 2.5v1.373a2.505 2.505 0 0 0 2.51 2.501h33.226a2.5 2.5 0 0 0 2.51-2.5v-1.373zm10.2 10.199a2.5 2.5 0 0 0-2.502-2.501h-53.64a2.495 2.495 0 0 0-2.502 2.5v1.373a2.5 2.5 0 0 0 2.501 2.5h53.641a2.495 2.495 0 0 0 2.501-2.5v-1.372zm-10.2 10.198a2.505 2.505 0 0 0-2.497-2.5H215.23a2.493 2.493 0 0 0-2.497 2.5v1.373a2.505 2.505 0 0 0 2.497 2.5h31.976c1.38 0 2.497-1.11 2.497-2.5v-1.373zM49.494 40.992a2.284 2.284 0 0 0-.762-.13H37.99c-.269 0-.526.046-.766.13a2.304 2.304 0 0 1 1.537 2.17c0 1.009-.64 1.856-1.533 2.17.239.085.495.13.762.13h10.742c.269 0 .527-.045.766-.13a2.304 2.304 0 0 1-1.537-2.17c0-1.008.64-1.856 1.533-2.17zM20.362 28.728c.243-.086.504-.132.776-.132h12.247c.27 0 .53.046.772.13a2.293 2.293 0 0 0-1.53 2.17c0 1 .644 1.851 1.533 2.168a2.328 2.328 0 0 1-.775.132H21.138c-.271 0-.531-.046-.772-.131a2.293 2.293 0 0 0 1.529-2.17c0-1-.644-1.85-1.533-2.167zm38.332-3.966a3.837 3.837 0 0 0-3.842-3.833H16.537a3.84 3.84 0 0 0-3.842 3.833 3.837 3.837 0 0 0 3.842 3.834h38.315a3.84 3.84 0 0 0 3.842-3.834zM70.961 37.03a3.83 3.83 0 0 0-3.842-3.833H4.27a3.84 3.84 0 0 0-3.842 3.833 3.83 3.83 0 0 0 3.842 3.833H67.12a3.84 3.84 0 0 0 3.842-3.833zM58.694 49.296a3.832 3.832 0 0 0-3.83-3.834H18.059a3.834 3.834 0 0 0 0 7.667h36.807c2.115 0 3.83-1.72 3.83-3.833z" fill="#F2706D" opacity=".092"/><g transform="translate(91.07 -.223)"><g stroke="#F2706D" stroke-width="5"><path stroke-linejoin="round" fill="#FFF" d="M6.546 145.705L1.094 58.468h92.688l-5.452 87.237z"/><path d="M93.782 47.564c0-19.05-18.527-20.185-25.053-10.136-4.967-22.709-37.593-22.813-42.582 0-6.56-10.082-25.053-8.86-25.053 10.136" stroke-linecap="round" stroke-linejoin="round"/><path d="M22.826 61.237l7.772 83.747M70.433 61.237l-7.772 83.747" stroke-linecap="square"/></g><circle fill="#F2706D" cx="8.607" cy="17.408" r="2.4"/><circle fill="#F2706D" cx="58.914" cy="7.411" r="1.507"/><circle fill="#F2706D" cx="35.03" cy="3.915" r="3.496"/></g><g transform="translate(53.906 58.284)" stroke="#F2706D" stroke-linejoin="round"><path d="M14.672 34.102S4.657 32.689 2.587 28.796c-2.387-4.49 2.766-9.05 6.986-4.285-1.594-6.162 5.071-7.884 7.458-3.395 2.07 3.893-2.359 12.986-2.359 12.986z" stroke-width="3"/><use mask="url(#b)" stroke-width="6" transform="scale(-1 1) rotate(28 0 -80.013)" xlink:href="#a"/><path d="M21.312 54.78s-8.73 6.57-13.285 5.18c-5.25-1.606-4.798-9.024 2.063-8.612-5.92-3.487-2.147-9.897 3.108-8.288 4.55 1.393 8.114 11.72 8.114 11.72z" stroke-width="3"/></g></g></svg>