<?xml version="1.0" encoding="UTF-8"?>
<svg width="260px" height="148px" viewBox="0 0 260 148" version="1.1" xmlns="http://www.w3.org/2000/svg" xmlns:xlink="http://www.w3.org/1999/xlink">
    <!-- Generator: Sketch 41.2 (35397) - http://www.bohemiancoding.com/sketch -->
    <title>Group 12</title>
    <desc>Created with Sketch.</desc>
    <defs>
        <path d="M24.5458517,10.6311617 C24.5458517,10.6311617 26.9109504,5.21539143 25.608617,2.99556276 C24.1049443,0.431673392 20.2565616,1.60147977 21.3346185,5.15677368 C18.7579861,2.47819741 15.862779,5.26636339 17.3639031,7.82770416 C18.663688,10.0500814 24.5458517,10.6311617 24.5458517,10.6311617 L24.5458517,10.6311617 Z" id="path-1"></path>
        <mask id="mask-2" maskContentUnits="userSpaceOnUse" maskUnits="objectBoundingBox" x="-3" y="-3" width="15.0479546" height="15.0164267">
            <rect x="13.9520454" y="-1.38526495" width="15.0479546" height="15.0164267" fill="white"></rect>
            <use xlink:href="#path-1" fill="black"></use>
        </mask>
    </defs>
    <g id="Design" stroke="none" stroke-width="1" fill="none" fill-rule="evenodd">
        <g id="Artboard" transform="translate(-91.000000, -261.000000)">
            <g id="Group-12" transform="translate(90.000000, 260.000000)">
                <g id="Group-10" transform="translate(100.261719, 10.499113)" fill="#FCE2E1">
                    <path d="M92.8246901,27.8478465 C92.8246901,8.79758172 74.2978441,7.66350757 67.7714655,17.7120588 C62.8044388,-4.99668557 30.1779979,-5.10027888 25.1891621,17.7120588 C18.6300698,7.63079389 0.1359375,8.85210452 0.1359375,27.8478465" id="Stroke-1191"></path>
                    <polygon id="Stroke-1180" points="5.62703806 122.86466 0.174758498 35.6281869 92.8635111 35.6281869 87.4112315 122.86466"></polygon>
                </g>
                <g id="Group-9" transform="translate(0.906250, 0.128953)">
                    <g id="Group" transform="translate(201.353027, 92.823633) rotate(11.000000) translate(-201.353027, -92.823633) translate(166.853027, 58.323633)" stroke="#F2706D" stroke-width="5" stroke-linecap="round" stroke-linejoin="round">
                        <path d="M32.1822972,68.2420344 L68.3932256,32.031106 C64.8628031,28.5036959 64.8628031,22.7833271 68.3932256,19.2498924 L49.2229113,0.0795780946 C45.6924888,3.61301283 39.9721201,3.61301283 36.4416976,0.0795780946 L0.233781543,36.2905065 C3.76119167,39.8179166 3.76119167,45.54431 0.233781543,49.0747324 L19.4040958,68.2420344 C22.9345183,64.711612 28.6518747,64.711612 32.1822972,68.2420344 L32.1822972,68.2420344 Z" id="Stroke-983"></path>
                        <path d="M32.1822972,55.4602183 C29.8387232,57.8037923 26.0040579,57.8037923 23.6634963,55.4602183 L13.0119829,44.8087049 C10.6684089,42.4681433 10.6684089,38.633478 13.0119829,36.289904 L36.4386853,12.8601893 C38.7852716,10.5166153 42.6169246,10.5166153 44.9604985,12.8601893 L55.6120119,23.5117027 C57.9555859,25.8552766 57.9555859,29.6869296 55.6120119,32.0335159 L32.1822972,55.4602183 L32.1822972,55.4602183 Z" id="Stroke-984"></path>
                        <polyline id="Stroke-985" points="39.2449765 24.2659283 34.3915508 29.1202858 23.5533272 39.96059"></polyline>
                        <path d="M41.7665506,33.09445 L33.2477498,41.6132509" id="Stroke-986"></path>
                    </g>
                    <path d="M218.453593,123.073938 L230.146806,123.073938 L229.619198,123.073938 C228.794833,123.073938 228.124728,123.745769 228.124728,124.574516 L228.124728,125.397888 C228.124728,126.232284 228.793825,126.898466 229.619198,126.898466 L230.146806,126.898466 L218.453593,126.898466 L218.981201,126.898466 C219.805566,126.898466 220.475671,126.226634 220.475671,125.397888 L220.475671,124.574516 C220.475671,123.74012 219.806574,123.073938 218.981201,123.073938 L218.453593,123.073938 Z M244.16933,112.875194 L231.20277,112.875194 L231.731126,112.875194 C232.555673,112.875194 233.2241,113.541376 233.2241,114.375772 L233.2241,115.199145 C233.2241,116.027891 232.545297,116.699723 231.731126,116.699723 L231.20277,116.699723 L244.16933,116.699723 L243.640974,116.699723 C242.816427,116.699723 242.148,116.033541 242.148,115.199145 L242.148,114.375772 C242.148,113.547026 242.826803,112.875194 243.640974,112.875194 L244.16933,112.875194 Z M211.551771,109.001943 C211.551771,107.620699 212.675667,106.50098 214.061151,106.50098 L247.287677,106.50098 C248.67357,106.50098 249.797058,107.611283 249.797058,109.001943 L249.797058,110.374231 C249.797058,111.755475 248.673161,112.875194 247.287677,112.875194 L214.061151,112.875194 C212.675258,112.875194 211.551771,111.764891 211.551771,110.374231 L211.551771,109.001943 Z M201.353027,119.200687 C201.353027,117.819443 202.47213,116.699723 203.854074,116.699723 L257.494754,116.699723 C258.876044,116.699723 259.995801,117.810026 259.995801,119.200687 L259.995801,120.572974 C259.995801,121.954218 258.876698,123.073938 257.494754,123.073938 L203.854074,123.073938 C202.472784,123.073938 201.353027,121.963634 201.353027,120.572974 L201.353027,119.200687 Z M211.551771,129.39943 C211.551771,128.018186 212.678409,126.898466 214.049355,126.898466 L246.02463,126.898466 C247.404008,126.898466 248.522215,128.00877 248.522215,129.39943 L248.522215,130.771717 C248.522215,132.152961 247.395576,133.272681 246.02463,133.272681 L214.049355,133.272681 C212.669977,133.272681 211.551771,132.162377 211.551771,130.771717 L211.551771,129.39943 Z" id="Combined-Shape-Copy-3" fill="#F2706D" opacity="0.0923233725" transform="translate(230.674414, 119.886830) scale(-1, 1) translate(-230.674414, -119.886830) "></path>
                    <path d="M21.9885622,41.8634814 C22.2271122,41.7792459 22.4836091,41.7334239 22.7505991,41.7334239 L33.4927433,41.7334239 C33.7613191,41.7334239 34.0191222,41.7792396 34.2586635,41.8636201 C33.3651922,42.1788167 32.7216372,43.0312631 32.7216372,44.0334069 C32.7216372,45.041685 33.361556,45.8895128 34.2547802,46.2033325 C34.0162302,46.287568 33.7597333,46.3333899 33.4927433,46.3333899 L22.7505991,46.3333899 C22.4820233,46.3333899 22.2242202,46.2875743 21.9846789,46.2031937 C22.8781502,45.8879972 23.5217052,45.0355508 23.5217052,44.0334069 C23.5217052,43.0251289 22.8817864,42.1773011 21.9885622,41.8634814 Z M51.1205536,29.5987615 C50.8781386,29.5132854 50.6170469,29.4668478 50.344968,29.4668478 L38.0981366,29.4668478 C37.8270872,29.4668478 37.5672667,29.5130104 37.326071,29.5978444 C38.2169567,29.9124138 38.8549253,30.7595569 38.8549253,31.7668308 C38.8549253,32.7671602 38.2115203,33.6183336 37.322551,33.9349002 C37.564966,34.0203763 37.8260578,34.0668139 38.0981366,34.0668139 L50.344968,34.0668139 C50.6160174,34.0668139 50.875838,34.0206513 51.1170336,33.9358173 C50.2261479,33.6212479 49.5881793,32.7741048 49.5881793,31.7668308 C49.5881793,30.7665015 50.2315843,29.9153281 51.1205536,29.5987615 Z M12.7884511,25.6335428 C12.7884511,23.5164669 14.5077387,21.8002378 16.631237,21.8002378 L54.9453255,21.8002378 C57.0676376,21.8002378 58.7881114,23.5207747 58.7881114,25.6335428 C58.7881114,27.7506187 57.0688238,29.4668478 54.9453255,29.4668478 L16.631237,29.4668478 C14.5089249,29.4668478 12.7884511,27.7463109 12.7884511,25.6335428 Z M0.521875,37.9001189 C0.521875,35.783043 2.23044399,34.0668139 4.36411476,34.0668139 L67.2124477,34.0668139 C69.3344582,34.0668139 71.0546875,35.7873508 71.0546875,37.9001189 C71.0546875,40.0171948 69.3461185,41.7334239 67.2124477,41.7334239 L4.36411476,41.7334239 C2.24210434,41.7334239 0.521875,40.012887 0.521875,37.9001189 Z M12.7884511,50.166695 C12.7884511,48.0496191 14.504338,46.3333899 16.6181118,46.3333899 L53.4251287,46.3333899 C55.5401919,46.3333899 57.2547894,48.0539269 57.2547894,50.166695 C57.2547894,52.2837709 55.5389024,54 53.4251287,54 L16.6181118,54 C14.5030486,54 12.7884511,52.2794631 12.7884511,50.166695 Z" id="Combined-Shape-Copy-4" fill="#F2706D" opacity="0.0923233725" transform="translate(35.788281, 37.900119) scale(-1, 1) translate(-35.788281, -37.900119) "></path>
                    <g id="Group-Copy-2" transform="translate(90.681641, -0.000000)"></g>
                    <g id="Group-14" transform="translate(91.164062, 0.648437)">
                        <g id="Group-8-Copy" transform="translate(0.400000, 19.807813)" stroke="#F2706D" stroke-width="5">
                            <polygon id="Stroke-1180" stroke-linejoin="round" fill="#FFFFFF" points="6.14578806 125.89674 0.693508498 38.660267 93.3822611 38.660267 87.9299815 125.89674"></polygon>
                            <path d="M93.3822611,27.7557078 C93.3822611,8.70544305 74.8554151,7.5713689 68.3290365,17.6199201 C63.3620098,-5.08882424 30.7355689,-5.19241755 25.7467331,17.6199201 C19.1876408,7.53865522 0.693508498,8.75996584 0.693508498,27.7557078" id="Stroke-1191" stroke-linecap="round" stroke-linejoin="round"></path>
                            <path d="M22.4262665,41.4295905 L30.1981421,125.176605" id="Line" stroke-linecap="square"></path>
                            <path d="M70.0330998,41.4295905 L62.2612242,125.176605" id="Line-Copy-2" stroke-linecap="square"></path>
                        </g>
                        <circle id="Oval-3" fill="#F2706D" cx="8.60703125" cy="17.4078125" r="2.4"></circle>
                        <circle id="Oval-3-Copy-2" fill="#F2706D" cx="58.9140625" cy="7.4109375" r="1.50703125"></circle>
                        <circle id="Oval-3-Copy" fill="#F2706D" cx="35.0296875" cy="3.91484375" r="3.49609375"></circle>
                    </g>
                    <g id="Group-2" transform="translate(54.000000, 59.155129)" stroke="#F2706D" stroke-linejoin="round">
                        <path d="M11.180549,34.9724613 C11.180549,34.9724613 19.3600238,29.0232567 19.3600238,24.6145197 C19.3600238,19.5296129 12.6692135,17.9209829 11.180549,24.1101188 C9.69461112,17.9209829 3.00107426,19.5296129 3.00107426,24.6145197 C3.00107426,29.0232567 11.180549,34.9724613 11.180549,34.9724613 L11.180549,34.9724613 Z" id="Stroke-6519" stroke-width="3" transform="translate(11.180549, 27.535160) scale(-1, 1) rotate(28.000000) translate(-11.180549, -27.535160) "></path>
                        <use id="Stroke-6520" mask="url(#mask-2)" stroke-width="6" transform="translate(21.476023, 6.122948) scale(-1, 1) rotate(28.000000) translate(-21.476023, -6.122948) " xlink:href="#path-1"></use>
                        <path d="M3.32569568,59.2651111 C3.32569568,59.2651111 14.1170183,60.9674541 17.4863614,57.6010562 C21.3681746,53.7192431 17.4863614,47.3811082 11.6224085,50.9654531 C15.2126439,45.1073906 8.87156374,41.219687 4.98680539,45.1073906 C1.62335275,48.4737885 3.32569568,59.2651111 3.32569568,59.2651111 L3.32569568,59.2651111 Z" id="Stroke-6521" stroke-width="3" transform="translate(10.971461, 51.619285) scale(-1, 1) rotate(28.000000) translate(-10.971461, -51.619285) "></path>
                    </g>
                </g>
            </g>
        </g>
    </g>
</svg>