<?xml version="1.0" encoding="UTF-8"?>
<svg width="43px" height="49px" viewBox="0 0 43 49" version="1.1" xmlns="http://www.w3.org/2000/svg" xmlns:xlink="http://www.w3.org/1999/xlink">
    <!-- Generator: Sketch 41.2 (35397) - http://www.bohemiancoding.com/sketch -->
    <title>Stroke 2489 + Stroke 2490 + Stroke 2491</title>
    <desc>Created with Sketch.</desc>
    <defs></defs>
    <g id="Design" stroke="none" stroke-width="1" fill="none" fill-rule="evenodd" stroke-linejoin="round">
        <g id="Popcorn-time" transform="translate(-786.000000, -1110.000000)" stroke="#F16E6C" stroke-width="3">
            <g id="Stroke-2489-+-Stroke-2490-+-Stroke-2491" transform="translate(787.503906, 1111.000000)">
                <path d="M22.215968,35.3380369 C22.215968,41.4690712 17.2437133,46.4413259 11.112679,46.4413259 C4.98164463,46.4413259 0.00938991314,41.4690712 0.00938991314,35.3380369 C0.00938991314,29.2049838 4.98164463,24.2347478 11.112679,24.2347478 C17.2437133,24.2347478 22.215968,29.2049838 22.215968,35.3380369 L22.215968,35.3380369 Z" id="Stroke-2489"></path>
                <path d="M19.6924932,28.2900727 C21.7274233,25.8130299 24.8161564,24.2343441 28.2723075,24.2343441 C34.4033418,24.2343441 39.3755965,29.20458 39.3755965,35.3376331 C39.3755965,41.4686674 34.4033418,46.4409222 28.2723075,46.4409222 C24.8161564,46.4409222 21.7314608,44.8642551 19.694512,42.3872123" id="Stroke-2490"></path>
                <path d="M27.6927158,24.2535225 C26.7539832,20.7065263 26.2533258,16.9758212 26.2533258,13.1320644 C26.2533258,8.86234509 26.8690536,4.7379779 28.0177393,0.839714056 C19.5893336,6.26619423 13.1635574,14.5310788 10.0869369,24.2838042" id="Stroke-2491"></path>
            </g>
        </g>
    </g>
</svg>