<svg width="43" height="49" viewBox="0 0 43 49" xmlns="http://www.w3.org/2000/svg"><title>Stroke 2489 + Stroke 2490 + Stroke 2491</title><g stroke="#F16E6C" stroke-width="3" fill="none" fill-rule="evenodd" stroke-linejoin="round"><path d="M23.72 36.338c0 6.131-4.972 11.103-11.103 11.103-6.131 0-11.104-4.972-11.104-11.103 0-6.133 4.973-11.103 11.104-11.103 6.13 0 11.103 4.97 11.103 11.103z"/><path d="M21.196 29.29a11.076 11.076 0 0 1 8.58-4.056c6.131 0 11.104 4.97 11.104 11.104 0 6.13-4.973 11.103-11.104 11.103-3.456 0-6.54-1.577-8.578-4.054"/><path d="M29.197 25.254a43.434 43.434 0 0 1-1.44-11.122c0-4.27.616-8.394 1.765-12.292C21.093 7.266 14.667 15.53 11.59 25.284"/></g></svg>