<svg width="50" height="49" viewBox="0 0 50 49" xmlns="http://www.w3.org/2000/svg"><title>Group 16</title><g fill="none" fill-rule="evenodd"><path d="M48.454 47.029H1.499c0-16.186 4.695-45.085 23.477-45.085s23.478 28.9 23.478 45.085z" stroke="#F16E6C" stroke-width="3" stroke-linecap="round" stroke-linejoin="round"/><path d="M29.672 8.844c-1.296 0-2.348.825-2.348 1.84 0 1.016 1.052 1.84 2.348 1.84 1.296 0 2.348-.824 2.348-1.84 0-1.015-1.052-1.84-2.348-1.84M20.28 8.844c-1.295 0-2.347.825-2.347 1.84 0 1.016 1.052 1.84 2.348 1.84 1.296 0 2.348-.824 2.348-1.84 0-1.015-1.052-1.84-2.348-1.84" fill="#F16E6C"/></g></svg>