<svg width="132" height="189" viewBox="0 0 132 189" xmlns="http://www.w3.org/2000/svg"><title>Group</title><g transform="translate(2)" fill="none" fill-rule="evenodd"><path d="M129.62 53.732c0-23.813-23.159-25.23-31.317-12.67-6.209-28.386-46.992-28.515-53.228 0C36.876 28.46 13.76 29.987 13.76 53.732" fill="#F48D8A"/><g stroke-width="5"><path stroke="#FFF" stroke-linejoin="round" d="M8.182 182.13L1.367 73.086h115.86l-6.815 109.046z"/><path d="M117.228 59.454c0-23.812-23.159-25.23-31.317-12.67-6.208-28.385-46.992-28.515-53.228 0-8.198-12.6-31.316-11.074-31.316 12.67" stroke="#FFF" stroke-linecap="round" stroke-linejoin="round"/><path d="M28.533 69.725l9.715 116.578M88.041 69.725l-9.714 116.578" stroke="#F2706D" stroke-linecap="square"/></g><path d="M20.623 172.503L13.807 63.457h115.861l-6.815 109.046z" fill="#FFF" opacity=".203"/><circle fill="#FFF" cx="10.759" cy="21.76" r="3"/><circle fill="#FFF" cx="73.643" cy="9.264" r="1.884"/><circle fill="#FFF" cx="43.787" cy="4.894" r="4.37"/></g></svg>