<?xml version="1.0" encoding="UTF-8"?>
<svg width="50px" height="49px" viewBox="0 0 50 49" version="1.1" xmlns="http://www.w3.org/2000/svg" xmlns:xlink="http://www.w3.org/1999/xlink">
    <!-- Generator: Sketch 41.2 (35397) - http://www.bohemiancoding.com/sketch -->
    <title>Group 16</title>
    <desc>Created with Sketch.</desc>
    <defs></defs>
    <g id="Design" stroke="none" stroke-width="1" fill="none" fill-rule="evenodd">
        <g id="Popcorn-time" transform="translate(-672.000000, -1106.000000)">
            <g id="Group-16" transform="translate(673.000000, 1107.805664)">
                <path d="M47.4539377,45.2233304 L0.498692256,45.2233304 C0.498692256,29.0376811 5.1942168,0.137956259 23.976315,0.137956259 C42.7584131,0.137956259 47.4539377,29.0376811 47.4539377,45.2233304 L47.4539377,45.2233304 Z" id="Stroke-36" stroke="#F16E6C" stroke-width="3" stroke-linecap="round" stroke-linejoin="round"></path>
                <path d="M28.6718395,7.03877882 C27.3758747,7.03877882 26.3240772,7.86319709 26.3240772,8.87899818 C26.3240772,9.89479926 27.3758747,10.7192175 28.6718395,10.7192175 C29.9678043,10.7192175 31.0196018,9.89479926 31.0196018,8.87899818 C31.0196018,7.86319709 29.9678043,7.03877882 28.6718395,7.03877882" id="Fill-40" fill="#F16E6C"></path>
                <path d="M19.2807904,7.03877882 C17.9848257,7.03877882 16.9330282,7.86319709 16.9330282,8.87899818 C16.9330282,9.89479926 17.9848257,10.7192175 19.2807904,10.7192175 C20.5767552,10.7192175 21.6285527,9.89479926 21.6285527,8.87899818 C21.6285527,7.86319709 20.5767552,7.03877882 19.2807904,7.03877882" id="Fill-38" fill="#F16E6C"></path>
            </g>
        </g>
    </g>
</svg>