<svg width="141" height="17" viewBox="0 0 141 17" xmlns="http://www.w3.org/2000/svg"><title>Stars</title><g fill="#F2706D" fill-rule="evenodd"><path d="M8.057 1.489L6.66 5.786H2.14a1.268 1.268 0 0 0-.746 2.294l3.657 2.657-1.397 4.298a1.268 1.268 0 0 0 1.952 1.418l3.656-2.657 3.656 2.657a1.263 1.263 0 0 0 1.491 0c.444-.323.63-.896.46-1.419l-1.396-4.297 3.657-2.656a1.267 1.267 0 0 0-.746-2.295h-4.52L10.47 1.49a1.268 1.268 0 1 0-2.412 0zM38.873 1.489l-1.397 4.297h-4.518a1.268 1.268 0 0 0-.746 2.294l3.656 2.657-1.397 4.298a1.268 1.268 0 0 0 1.952 1.418l3.656-2.657 3.656 2.657a1.263 1.263 0 0 0 1.492 0c.444-.323.63-.896.46-1.419l-1.397-4.297 3.658-2.656a1.267 1.267 0 0 0-.746-2.295h-4.52L41.285 1.49a1.268 1.268 0 1 0-2.412 0zM69.69 1.489l-1.397 4.297h-4.519a1.268 1.268 0 0 0-.746 2.294l3.657 2.657-1.397 4.298a1.268 1.268 0 0 0 1.952 1.418l3.656-2.657 3.656 2.657a1.263 1.263 0 0 0 1.491 0c.444-.323.63-.896.46-1.419l-1.396-4.297 3.657-2.656a1.267 1.267 0 0 0-.746-2.295h-4.52L72.102 1.49a1.268 1.268 0 1 0-2.412 0zM100.506 1.489l-1.397 4.297h-4.518a1.268 1.268 0 0 0-.746 2.294l3.656 2.657-1.397 4.298a1.268 1.268 0 0 0 1.952 1.418l3.656-2.657 3.656 2.657a1.263 1.263 0 0 0 1.492 0c.444-.323.63-.896.46-1.419l-1.397-4.297 3.658-2.656a1.267 1.267 0 0 0-.746-2.295h-4.52l-1.397-4.297a1.268 1.268 0 1 0-2.412 0zM131.323 1.489l-1.397 4.297h-4.519a1.268 1.268 0 0 0-.746 2.294l3.657 2.657-1.397 4.298a1.268 1.268 0 0 0 1.951 1.418l3.657-2.657 3.656 2.657a1.263 1.263 0 0 0 1.491 0c.444-.323.63-.896.46-1.419l-1.396-4.297 3.657-2.656a1.267 1.267 0 0 0-.746-2.295h-4.52l-1.396-4.297a1.268 1.268 0 1 0-2.412 0z"/></g></svg>