<?xml version="1.0" encoding="UTF-8"?>
<svg width="141px" height="17px" viewBox="0 0 141 17" version="1.1" xmlns="http://www.w3.org/2000/svg" xmlns:xlink="http://www.w3.org/1999/xlink">
    <!-- Generator: Sketch 41.2 (35397) - http://www.bohemiancoding.com/sketch -->
    <title>Stars</title>
    <desc>Created with Sketch.</desc>
    <defs></defs>
    <g id="Template" stroke="none" stroke-width="1" fill="none" fill-rule="evenodd">
        <g id="Popcorn-time" transform="translate(-659.000000, -910.000000)" fill="#F2706D">
            <g id="Stars" transform="translate(659.003906, 910.201695)">
                <path d="M8.05262867,1.2870557 L6.65577826,5.58399847 L2.1373263,5.58399847 C1.588252,5.58399847 1.10026053,5.93790975 0.931275861,6.46097351 C0.760780905,6.98303041 0.947385621,7.5554303 1.39157868,7.87880017 L5.04765507,10.5357358 L3.65080466,14.8333498 C3.4803097,15.3554067 3.66691442,15.9278066 4.11110748,16.2511765 C4.33395915,16.4129453 4.59607837,16.4936619 4.8568551,16.4936619 C5.11897432,16.4936619 5.38126134,16.4129453 5.60260273,16.2511765 L9.25867911,13.5944086 L12.9147555,16.2511765 C13.1360969,16.4129453 13.3983839,16.4936619 13.6605031,16.4936619 C13.9212799,16.4936619 14.1833991,16.4129453 14.4062507,16.2511765 C14.8504438,15.9278066 15.0368807,15.3554067 14.8665536,14.8325108 L13.4697032,10.5357358 L17.127122,7.87963922 C17.5713151,7.55694059 17.7579198,6.9845407 17.5874248,6.46164475 C17.4169299,5.9387488 16.9304487,5.58466971 16.3812066,5.58466971 L11.86158,5.58466971 L10.4647296,1.2870557 C10.2942346,0.764159756 9.80775342,0.410919714 9.25867911,0.410248474 C8.70960481,0.410248474 8.22161334,0.764159756 8.05262867,1.2870557 Z" id="Shape"></path>
                <path d="M38.8691249,1.2870557 L37.4722745,5.58399847 L32.9538225,5.58399847 C32.4047482,5.58399847 31.9167567,5.93790975 31.7477721,6.46097351 C31.5772771,6.98303041 31.7638818,7.5554303 32.2080749,7.87880017 L35.8641513,10.5357358 L34.4673009,14.8333498 C34.2968059,15.3554067 34.4834106,15.9278066 34.9276037,16.2511765 C35.1504554,16.4129453 35.4125746,16.4936619 35.6733513,16.4936619 C35.9354705,16.4936619 36.1977575,16.4129453 36.4190989,16.2511765 L40.0751753,13.5944086 L43.7312517,16.2511765 C43.9525931,16.4129453 44.2148801,16.4936619 44.4769993,16.4936619 C44.7377761,16.4936619 44.9998953,16.4129453 45.222747,16.2511765 C45.66694,15.9278066 45.8533769,15.3554067 45.6830498,14.8325108 L44.2861994,10.5357358 L47.9436182,7.87963922 C48.3878113,7.55694059 48.574416,6.9845407 48.4039211,6.46164475 C48.2334261,5.9387488 47.7469449,5.58466971 47.1977028,5.58466971 L42.6780762,5.58466971 L41.2812258,1.2870557 C41.1107308,0.764159756 40.6242496,0.410919714 40.0751753,0.410248474 C39.526101,0.410248474 39.0381095,0.764159756 38.8691249,1.2870557 Z" id="Shape-Copy"></path>
                <path d="M69.6856211,1.2870557 L68.2887707,5.58399847 L63.7703187,5.58399847 C63.2212444,5.58399847 62.7332529,5.93790975 62.5642683,6.46097351 C62.3937733,6.98303041 62.580378,7.5554303 63.0245711,7.87880017 L66.6806475,10.5357358 L65.2837971,14.8333498 C65.1133021,15.3554067 65.2999068,15.9278066 65.7440999,16.2511765 C65.9669516,16.4129453 66.2290708,16.4936619 66.4898475,16.4936619 C66.7519667,16.4936619 67.0142538,16.4129453 67.2355951,16.2511765 L70.8916715,13.5944086 L74.5477479,16.2511765 C74.7690893,16.4129453 75.0313763,16.4936619 75.2934955,16.4936619 C75.5542723,16.4936619 75.8163915,16.4129453 76.0392432,16.2511765 C76.4834362,15.9278066 76.6698731,15.3554067 76.499546,14.8325108 L75.1026956,10.5357358 L78.7601144,7.87963922 C79.2043075,7.55694059 79.3909122,6.9845407 79.2204173,6.46164475 C79.0499223,5.9387488 78.5634411,5.58466971 78.014199,5.58466971 L73.4945724,5.58466971 L72.097722,1.2870557 C71.927227,0.764159756 71.4407458,0.410919714 70.8916715,0.410248474 C70.3425972,0.410248474 69.8546058,0.764159756 69.6856211,1.2870557 Z" id="Shape-Copy-2"></path>
                <path d="M100.502117,1.2870557 L99.1052669,5.58399847 L94.5868149,5.58399847 C94.0377406,5.58399847 93.5497492,5.93790975 93.3807645,6.46097351 C93.2102695,6.98303041 93.3968742,7.5554303 93.8410673,7.87880017 L97.4971437,10.5357358 L96.1002933,14.8333498 C95.9297983,15.3554067 96.116403,15.9278066 96.5605961,16.2511765 C96.7834478,16.4129453 97.045567,16.4936619 97.3063437,16.4936619 C97.5684629,16.4936619 97.83075,16.4129453 98.0520914,16.2511765 L101.708168,13.5944086 L105.364244,16.2511765 C105.585586,16.4129453 105.847873,16.4936619 106.109992,16.4936619 C106.370768,16.4936619 106.632888,16.4129453 106.855739,16.2511765 C107.299932,15.9278066 107.486369,15.3554067 107.316042,14.8325108 L105.919192,10.5357358 L109.576611,7.87963922 C110.020804,7.55694059 110.207408,6.9845407 110.036913,6.46164475 C109.866419,5.9387488 109.379937,5.58466971 108.830695,5.58466971 L104.311069,5.58466971 L102.914218,1.2870557 C102.743723,0.764159756 102.257242,0.410919714 101.708168,0.410248474 C101.159093,0.410248474 100.671102,0.764159756 100.502117,1.2870557 Z" id="Shape-Copy-3"></path>
                <path d="M131.318614,1.2870557 L129.921763,5.58399847 L125.403311,5.58399847 C124.854237,5.58399847 124.366245,5.93790975 124.197261,6.46097351 C124.026766,6.98303041 124.21337,7.5554303 124.657564,7.87880017 L128.31364,10.5357358 L126.916789,14.8333498 C126.746295,15.3554067 126.932899,15.9278066 127.377092,16.2511765 C127.599944,16.4129453 127.862063,16.4936619 128.12284,16.4936619 C128.384959,16.4936619 128.647246,16.4129453 128.868588,16.2511765 L132.524664,13.5944086 L136.18074,16.2511765 C136.402082,16.4129453 136.664369,16.4936619 136.926488,16.4936619 C137.187265,16.4936619 137.449384,16.4129453 137.672236,16.2511765 C138.116429,15.9278066 138.302866,15.3554067 138.132538,14.8325108 L136.735688,10.5357358 L140.393107,7.87963922 C140.8373,7.55694059 141.023905,6.9845407 140.85341,6.46164475 C140.682915,5.9387488 140.196434,5.58466971 139.647191,5.58466971 L135.127565,5.58466971 L133.730714,1.2870557 C133.560219,0.764159756 133.073738,0.410919714 132.524664,0.410248474 C131.97559,0.410248474 131.487598,0.764159756 131.318614,1.2870557 Z" id="Shape-Copy-4"></path>
            </g>
        </g>
    </g>
</svg>