<?xml version="1.0" encoding="UTF-8"?>
<svg width="138px" height="138px" viewBox="0 0 138 138" version="1.1" xmlns="http://www.w3.org/2000/svg" xmlns:xlink="http://www.w3.org/1999/xlink">
    <!-- Generator: Sketch 41.2 (35397) - http://www.bohemiancoding.com/sketch -->
    <title>Step1</title>
    <desc>Created with Sketch.</desc>
    <defs></defs>
    <g id="Design" stroke="none" stroke-width="1" fill="none" fill-rule="evenodd">
        <g id="Step1">
            <g id="Speech">
                <rect id="Rectangle-7-Copy" x="0.336631373" y="0.666992188" width="140" height="140"></rect>
                <g transform="translate(7.250718, 34.000000)">
                    <path d="M10.9447308,59.46716 L17.299529,59.46716 L27.4362059,59.46716 L111.975704,59.46716 C113.729628,59.46716 115.153103,58.0436852 115.153103,56.2897609 L115.153103,14.9835727 C115.153103,13.226471 113.729628,11.8061736 111.975704,11.8061736 L10.9447308,11.8061736 C9.18762906,11.8061736 7.76733167,13.226471 7.76733167,14.9835727 L7.76733167,56.2897609 C7.76733167,58.0436852 9.18762906,59.46716 10.9447308,59.46716 Z" id="Stroke-13-Copy" fill="#F48C8A"></path>
                    <path d="M3.44290277,66.1542516 L9.79770095,66.1542516 L9.79770095,72.8603694 L19.9343779,66.1542516 L104.473876,66.1542516 C106.2278,66.1542516 107.651275,64.7307768 107.651275,62.9768525 L107.651275,21.6706643 C107.651275,19.9135626 106.2278,18.4932652 104.473876,18.4932652 L3.44290277,18.4932652 C1.68580107,18.4932652 0.265503673,19.9135626 0.265503673,21.6706643 L0.265503673,62.9768525 C0.265503673,64.7307768 1.68580107,66.1542516 3.44290277,66.1542516 Z" id="Stroke-13" stroke="#FFFFFF" stroke-width="3.5" stroke-linecap="round" stroke-linejoin="round"></path>
                    <g id="Group-8" transform="translate(29.296094, 34.789111)" stroke="#FFFFFF" stroke-width="4" stroke-linecap="round">
                        <path d="M1.65405188,2.32625215 L24.8979626,2.32625215" id="Line"></path>
                        <path d="M12.640087,12.3967844 L25.8134656,12.3967844" id="Line-Copy-4"></path>
                        <path d="M1.65405188,12.3967844 L6.58790403,12.3967844" id="Line-Copy-6"></path>
                        <path d="M32.2169542,2.32625215 L36.0909393,2.32625215" id="Line"></path>
                        <path d="M43.4099309,2.32625215 L47.283916,2.32625215" id="Line-Copy-2"></path>
                        <path d="M31.2484579,12.3967844 L42.8704133,12.3967844" id="Line-Copy-10"></path>
                    </g>
                    <g id="Group-4" transform="translate(114.899194, 0.514004)" stroke-linecap="round" stroke-width="3.5" stroke="#FFFFFF" stroke-linejoin="round">
                        <g id="Group-5">
                            <path d="M8.01065063,15.4988309 L8.01065063,11.2106319" id="Line" transform="translate(8.010651, 13.354731) rotate(-270.000000) translate(-8.010651, -13.354731) "></path>
                            <path d="M0,5.02026032 L0,0.732061317" id="Line-Copy"></path>
                            <path d="M6.99920957,6.40540372 L13.3188984,0.96323319" id="Line"></path>
                        </g>
                    </g>
                </g>
            </g>
        </g>
    </g>
</svg>