<svg width="138" height="138" viewBox="0 0 138 138" xmlns="http://www.w3.org/2000/svg"><title>Step1</title><g fill="none" fill-rule="evenodd"><path d="M.337.667h140v140h-140z"/><path d="M18.195 93.467H119.227a3.179 3.179 0 0 0 3.177-3.177V48.984a3.177 3.177 0 0 0-3.178-3.178H18.196a3.174 3.174 0 0 0-3.178 3.178V90.29a3.177 3.177 0 0 0 3.177 3.177z" fill="#F48C8A"/><path d="M10.694 100.154h6.354v6.706l10.137-6.706h84.54a3.179 3.179 0 0 0 3.177-3.177V55.67a3.177 3.177 0 0 0-3.177-3.178H10.694a3.174 3.174 0 0 0-3.178 3.178v41.306a3.177 3.177 0 0 0 3.178 3.177z" stroke="#FFF" stroke-width="3.5" stroke-linecap="round" stroke-linejoin="round"/><g stroke="#FFF" stroke-width="4" stroke-linecap="round"><path d="M38.2 71.115h23.245M49.187 81.186H62.36M38.2 81.186h4.935M68.764 71.115h3.874M79.957 71.115h3.874M67.795 81.186h11.622"/></g><g stroke-linecap="round" stroke-width="3.5" stroke="#FFF" stroke-linejoin="round"><path d="M128.016 47.869h4.289M122.15 39.534v-4.288M129.15 40.92l6.319-5.443"/></g></g></svg>