<?xml version="1.0" encoding="UTF-8"?>
<svg width="138px" height="138px" viewBox="0 0 138 138" version="1.1" xmlns="http://www.w3.org/2000/svg" xmlns:xlink="http://www.w3.org/1999/xlink">
    <!-- Generator: Sketch 41.2 (35397) - http://www.bohemiancoding.com/sketch -->
    <title>Step3</title>
    <desc>Created with Sketch.</desc>
    <defs></defs>
    <g id="Design" stroke="none" stroke-width="1" fill="none" fill-rule="evenodd">
        <g id="Step3">
            <g transform="translate(1.000000, -3.000000)">
                <rect id="Rectangle-7-Copy-3" x="0.233766421" y="0.580771251" width="140" height="140"></rect>
                <g id="Book-Club" transform="translate(37.733766, 23.580771)">
                    <path d="M63.8958653,26.4869885 C63.8958653,14.7484866 52.4798867,14.0496863 48.4584251,20.2414604 C45.397814,6.24865553 25.2938657,6.18482281 22.2198161,20.2414604 C18.1781969,14.0295286 6.78237591,14.7820828 6.78237591,26.4869885" id="Stroke-1191" fill="#F48D8A"></path>
                    <g id="Group-8-Copy" transform="translate(0.246474, 12.205292)" stroke-width="3.5">
                        <polygon id="Stroke-1180" stroke="#FFFFFF" stroke-linejoin="round" points="3.78694709 77.5757784 0.427330061 23.821906 57.5408195 23.821906 54.1812025 77.5757784"></polygon>
                        <path d="M57.5408195,17.1026719 C57.5408195,5.36417004 46.1248408,4.6653697 42.1033793,10.8571439 C39.0427681,-3.13566103 18.9388199,-3.19949376 15.8647703,10.8571439 C11.823151,4.645212 0.427330061,5.39776621 0.427330061,17.1026719" id="Stroke-1191" stroke="#FFFFFF" stroke-linecap="round" stroke-linejoin="round"></path>
                        <path d="M13.818746,22.1656186 L18.6076651,79.6326472" id="Line" stroke="#F2706D" stroke-linecap="square"></path>
                        <path d="M38.3644798,22.1656186 L43.1533988,79.6326472" id="Line-Copy-2" stroke="#F2706D" stroke-linecap="square" transform="translate(40.758939, 50.899133) scale(-1, 1) translate(-40.758939, -50.899133) "></path>
                    </g>
                    <g id="Group-11" transform="translate(6.782376, 31.220399)" fill="#FFFFFF" opacity="0.202615489">
                        <polygon id="Stroke-1180" points="3.38353797 53.8145964 0.023920946 0.0607240062 57.1374104 0.0607240062 53.7777933 53.8145964"></polygon>
                    </g>
                    <ellipse id="Oval-3" fill="#FFFFFF" cx="5.30353009" cy="10.7264462" rx="1.47884582" ry="1.47884582"></ellipse>
                    <ellipse id="Oval-3-Copy-2" fill="#FFFFFF" cx="36.3020064" cy="4.56651415" rx="0.928611196" ry="0.928611196"></ellipse>
                    <ellipse id="Oval-3-Copy" fill="#FFFFFF" cx="21.5847946" cy="2.41227097" rx="2.15424318" ry="2.15424318"></ellipse>
                </g>
            </g>
        </g>
    </g>
</svg>