<svg width="138" height="138" viewBox="0 0 138 138" xmlns="http://www.w3.org/2000/svg"><title>Step2</title><g fill="none" fill-rule="evenodd"><path d="M.258.6h140v140h-140z"/><path stroke="#FFF" stroke-width="3.5" stroke-linejoin="round" d="M44.955 82.059l-11.042 19.09 11.46-1.937 3.973 10.92 9.775-16.415M95.989 82.059l10.915 18.826-11.463-1.938-3.976 10.92-9.754-16.322M97.376 63.963c0 14.797-11.995 26.789-26.788 26.789-14.796 0-26.789-11.992-26.789-26.789 0-14.793 11.993-26.788 26.789-26.788 14.793 0 26.788 11.995 26.788 26.788z"/><path d="M102.583 57.603c0 14.796-11.996 26.789-26.789 26.789-14.796 0-26.788-11.993-26.788-26.789 0-14.793 11.992-26.788 26.788-26.788 14.793 0 26.789 11.995 26.789 26.788z" fill="#FFF" opacity=".2"/><path stroke="#FFF" stroke-width="3" stroke-linejoin="round" d="M70.589 49.08l4.464 8.93h8.93l-7.441 7.442 2.976 10.417-8.93-5.584-8.929 5.584 2.977-10.417-7.442-7.442h8.93z"/></g></svg>