<svg width="138" height="138" viewBox="0 0 138 138" xmlns="http://www.w3.org/2000/svg"><title>Step3</title><g fill="none" fill-rule="evenodd"><path d="M1.234-2.419h140v140h-140z"/><g transform="translate(38.734 20.58)"><path d="M63.896 26.487c0-11.739-11.416-12.437-15.438-6.246-3.06-13.992-23.164-14.056-26.238 0-4.042-6.211-15.438-5.459-15.438 6.246" fill="#F48D8A"/><g stroke-width="3.5"><path stroke="#FFF" stroke-linejoin="round" d="M4.033 89.781L.673 36.027h57.114l-3.36 53.754z"/><path d="M57.787 29.308c0-11.739-11.416-12.437-15.437-6.246-3.06-13.992-23.165-14.056-26.239 0C12.07 16.851.674 17.603.674 29.308" stroke="#FFF" stroke-linecap="round" stroke-linejoin="round"/><path d="M14.065 34.37l4.79 57.468M43.4 34.37L38.61 91.839" stroke="#F2706D" stroke-linecap="square"/></g><path d="M10.166 85.035l-3.36-53.754H63.92l-3.36 53.754z" fill="#FFF" opacity=".203"/><ellipse fill="#FFF" cx="5.304" cy="10.726" rx="1.479" ry="1.479"/><ellipse fill="#FFF" cx="36.302" cy="4.567" rx=".929" ry=".929"/><ellipse fill="#FFF" cx="21.585" cy="2.412" rx="2.154" ry="2.154"/></g></g></svg>