<?xml version="1.0" encoding="UTF-8"?>
<svg width="138px" height="138px" viewBox="0 0 138 138" version="1.1" xmlns="http://www.w3.org/2000/svg" xmlns:xlink="http://www.w3.org/1999/xlink">
    <!-- Generator: Sketch 41.2 (35397) - http://www.bohemiancoding.com/sketch -->
    <title>Step2 </title>
    <desc>Created with Sketch.</desc>
    <defs></defs>
    <g id="Design" stroke="none" stroke-width="1" fill="none" fill-rule="evenodd">
        <g id="Step2-">
            <g id="Step2">
                <rect id="Rectangle-7-Copy-2" x="0.257520589" y="0.599900169" width="140" height="140"></rect>
                <g id="Group-15" transform="translate(33.257521, 30.099900)">
                    <polyline id="Stroke-38" stroke="#FFFFFF" stroke-width="3.5" stroke-linejoin="round" points="11.6979061 51.9586395 0.655126359 71.0498495 12.1146148 69.1121542 16.0882296 80.0328978 25.8630244 63.6175527"></polyline>
                    <polyline id="Stroke-39" stroke="#FFFFFF" stroke-width="3.5" stroke-linejoin="round" points="62.7312566 51.9586395 73.6460473 70.7849419 62.1835824 68.8472465 58.2069911 79.7679902 48.4530317 63.4449163"></polyline>
                    <path d="M64.1186996,33.8634746 C64.1186996,48.6596088 52.1234429,60.651889 37.3302852,60.651889 C22.5341509,60.651889 10.5418707,48.6596088 10.5418707,33.8634746 C10.5418707,19.0703168 22.5341509,7.07506015 37.3302852,7.07506015 C52.1234429,7.07506015 64.1186996,19.0703168 64.1186996,33.8634746 L64.1186996,33.8634746 Z" id="Stroke-40" stroke="#FFFFFF" stroke-width="3.5" stroke-linejoin="round"></path>
                    <path d="M69.3250537,27.5033592 C69.3250537,42.2994934 57.329797,54.2917736 42.5366392,54.2917736 C27.740505,54.2917736 15.7482248,42.2994934 15.7482248,27.5033592 C15.7482248,12.7102014 27.740505,0.714944741 42.5366392,0.714944741 C57.329797,0.714944741 69.3250537,12.7102014 69.3250537,27.5033592 L69.3250537,27.5033592 Z" id="Stroke-40-Copy" fill="#FFFFFF" opacity="0.2"></path>
                    <polygon id="Stroke-41" stroke="#FFFFFF" stroke-width="3" stroke-linejoin="round" points="37.3310198 18.9810221 41.7957555 27.9104936 50.725227 27.9104936 43.2840008 35.3517198 46.2604913 45.7694366 37.3310198 40.1855404 28.4015483 45.7694366 31.3780388 35.3517198 23.9368126 27.9104936 32.866284 27.9104936"></polygon>
                </g>
            </g>
        </g>
    </g>
</svg>